<?xml version="1.0" encoding="UTF-8" standalone="no"?>
<!DOCTYPE svg PUBLIC "-//W3C//DTD SVG 1.1//EN" "http://www.w3.org/Graphics/SVG/1.1/DTD/svg11.dtd">
<svg width="100%" height="100%" viewBox="0 0 473 473" version="1.1" xmlns="http://www.w3.org/2000/svg" xmlns:xlink="http://www.w3.org/1999/xlink" xml:space="preserve" xmlns:serif="http://www.serif.com/" style="fill-rule:evenodd;clip-rule:evenodd;">
    <g transform="matrix(1,0,0,1,-193.253578,-907.985559)">
        <g transform="matrix(0.110728,0,0,0.110728,429.47405,1144.206031)">
            <g transform="matrix(1,0,0,1,-2133.333333,-2133.333333)">
                <g id="Layer_1-2" transform="matrix(4.166667,0,0,4.166667,0,0)">
                    <path d="M1024,146.66L1024,877.34C1024,958.284 958.284,1024 877.34,1024L146.66,1024C65.716,1024 0,958.284 0,877.34L0,146.66C0,65.716 65.716,0 146.66,0L877.34,0C958.284,0 1024,65.716 1024,146.66Z" style="fill:rgb(4,169,210);"/>
                    <g transform="matrix(0.883252,0,0,0.883252,59.777422,307.512554)">
                        <path d="M810.65,611.92C814.82,598.88 813.43,584.22 802.44,579.65C791.97,591.07 790.22,614.14 783.56,630.11C778.11,643.2 769.9,656.84 767.15,673.96L767.96,673.96C786.26,658.63 803.04,635.66 810.64,611.91L810.65,611.92ZM903.4,507.68C888.36,514.56 878.16,516.5 873.03,533.33C887.35,529.76 896.77,517.11 907.5,509.34L907.5,508.51L905.86,507.68L903.4,507.68ZM949.35,519.26C949.9,519.54 950.45,519.81 951,520.09C950.23,544.82 896.28,587.22 865.64,577.98C855.08,574.8 852.81,563.24 845.95,555.65C846.12,548.09 848.57,547.21 850.87,542.42C839.17,548.59 820.54,559.22 812.3,570.55C817.7,578.36 826.07,584.71 828.71,595.37C836.54,626.93 772.33,682.62 754.84,695.46C744.76,689.58 744.56,674.94 749.1,663.19C754.84,646.38 760.58,629.55 766.33,612.74C772.62,599.22 778.92,585.71 785.2,572.19C781.88,570.84 780.64,570.09 779.46,566.4C788.08,563.23 802.13,542.62 799.97,533.32C798.6,534.42 797.24,535.53 795.87,536.63C787.41,548.06 747.95,578.22 730.2,578.81C726.57,577.07 724.55,575.94 722.82,572.2C716.59,551.39 727.91,538.26 731.84,521.74C731.3,521.46 730.75,521.19 730.2,520.92C715.86,527.1 709.82,532.83 698.19,541.6L694.91,541.6C694.36,540.48 693.82,539.39 693.27,538.28C693.82,535.25 694.36,532.21 694.91,529.18C706.76,516.48 724.6,507.51 739.23,497.75C745.61,499.91 749.93,502.37 752.36,508.5C757.38,527.13 737.89,541.12 740.05,557.3C742.23,557.03 744.43,556.75 746.61,556.48C751.05,551.05 758.06,549.88 763.85,545.73C781.66,532.93 804.16,516.02 816.39,497.75C834.38,470.84 836.92,416.51 861.53,397.65C862.88,397.92 864.26,398.2 865.62,398.47C870.87,405.84 875.21,429.44 868.09,439.83C866.97,441.48 862.38,440.38 863.17,443.98C868.34,446.32 856.01,465.39 853.33,470.45C840.29,495 819.66,520.93 813.1,551.52L813.92,551.52C830.39,545.6 842.59,534.86 858.23,525.04C863.45,521.78 865.08,515.15 868.9,510.16C878.16,498.04 907.45,489.8 923.89,500.23C924.44,501.61 924.98,503 925.53,504.38C922.94,517.52 877.57,546.87 864.8,552.35C864.24,554.84 863.7,557.31 863.15,559.8C863.7,561.17 864.24,562.55 864.8,563.94C907.99,564.5 922.89,533.42 949.32,519.26L949.35,519.26ZM767.9,460.66C762.03,460.25 760.19,458.33 756.77,455.76C756.12,450.17 755.88,444.74 757.56,440.22C759.15,439.4 760.74,438.58 762.33,437.76C764.18,438.05 766.04,438.31 767.89,438.59C769.74,440.77 771.6,442.96 773.45,445.13C773.19,448.95 772.92,452.77 772.66,456.59C771.07,457.95 769.48,459.31 767.89,460.68L767.9,460.66ZM561.2,567.53L561.2,564.19L558.73,564.19C549.83,567.97 529.09,568.99 525.06,577.53C540.41,580.85 553.76,580.92 561.2,567.53ZM684.4,383.93C675.68,394.07 667.17,404.98 663.05,419.81C673.09,413.92 685.16,398.82 686.04,383.93L684.4,383.93ZM711.51,558.33C711.9,567.84 710.36,572.92 704.12,575.85C694.33,572.06 692.21,566.8 686.05,563.34C670.4,554.57 617.19,545.52 598.17,555.83C594.76,557.68 592.94,563.12 590.79,566.69C585.34,575.65 571.66,586.64 561.21,590.05C544.59,595.47 519.59,591.94 516.86,574.2C524.94,568.8 535.69,562.13 545.61,559.18C554.56,556.51 563.36,557.63 570.25,552.5C582.58,543.34 608.59,487.64 616.25,469.89C603.82,474.13 592.76,489.09 578.46,485.75C577.77,489.52 578.56,488.23 575.99,489.91C570.9,491.76 569.2,488.29 566.14,485.75L566.14,484.91C566.41,483.23 566.68,481.56 566.95,479.89C568.73,476.04 571.94,473.84 575.16,471.55C643.86,472.88 632.61,399.71 680.3,374.75C685.47,375.19 688.06,377.13 690.15,380.59C698.7,395.02 683.93,412.66 678.66,422.32C673.64,431.49 651.37,440.57 646.62,449.02C641.42,462.92 636.21,476.84 631.02,490.74C623.8,507.82 608.47,521.81 605.56,541.65L607.21,541.65C639.04,549.59 685.73,532.4 711.52,558.33L711.51,558.33ZM526.78,510.73C531.55,531.42 494.59,569.06 482.6,575.97C472.27,581.92 457.58,576 453.41,568.54C449.46,560.89 453.8,545.18 450.08,538.81L450.08,540.47C442.72,548.12 415.26,587.08 400.89,580.1C397.92,578.93 397.38,578.64 395.89,575.98C386.24,558.57 399.6,540.17 405.05,527.25C404.78,526.98 404.5,526.71 404.22,526.43C395.72,530.96 391.37,537.79 384.21,542.94C372.5,551.39 318.99,598.5 298.33,569.38C296.12,566.26 287.5,558.92 286.66,552.03C293.88,534.35 303.99,513.25 319.18,503.31C326.58,498.46 334.65,498.94 341.69,495.05C350.51,494.86 356.88,495.94 363.36,497.52C364.75,499.18 366.14,500.83 367.53,502.48C366.28,523.01 319.51,539.09 306.67,552.85C304.68,556.53 305.02,560.32 306.67,563.59C350.94,564.3 369.38,531.81 396.7,517.33C406.37,512.23 410.93,497.64 424.22,496.69C425.9,497.8 427.56,498.9 429.22,500C432.44,527.17 412.83,534.14 409.21,557.82L411.7,557.82C433.93,548.65 448.92,522.18 460.9,502.49L465.07,502.49C472.5,505.33 476.6,512.24 476.73,522.31C470.89,530.97 463.59,546.72 466.72,559.48L467.57,559.48C481.44,557.48 505.15,536.35 506.76,523.96C507.63,517.27 502.44,511.3 503.42,504.15C504.53,502.77 505.64,501.39 506.76,500.01L517.59,500.01C520.57,503.31 525.63,505.78 526.76,510.75L526.78,510.73ZM345.03,507.43C329.68,514.5 323.14,516.55 315.01,530.55C315.29,531.37 315.56,532.21 315.85,533.03C328.57,527.09 339.54,518.19 349.19,509.08C348.64,508.53 348.09,507.98 347.53,507.43L345.03,507.43ZM178.88,425.03C179.25,398.79 198.62,386.08 214.45,374.75C216.1,375.03 217.76,375.31 219.41,375.58C220.23,389.35 218.65,413.11 213.62,426.68C212.14,430.67 208.28,434.67 207.83,440.68C204.8,481.37 227.61,518.51 250.02,535.45L250.86,535.45C254.23,522.56 263.06,516.77 262.44,503.32C266.17,503.13 266.9,502.73 269.06,501.67C268.02,497.94 265.88,492.55 269.06,489.31C271.55,488.2 274.02,487.11 276.5,486.01C278.83,477.32 278.83,465.19 280.64,455.51C281.19,455.24 281.74,454.97 282.3,454.7C285.81,456.47 283.73,456.71 287.26,455.51L287.26,445.63C299.79,439.06 295.19,428.08 302.14,415.96C309.87,409.92 317.59,403.88 325.3,397.83C326.69,398.37 328.07,398.93 329.44,399.48C330.24,408.43 333.19,441.27 326.13,446.45C322.42,449.17 321.39,445.46 317.86,446.45C312.05,448.08 315.01,453.15 308.77,449.74C308.22,447.54 307.67,445.34 307.11,443.15C306.56,443.7 306.01,444.26 305.45,444.8C300.11,447.7 292.66,459.91 293.05,467.88C293.6,471.45 294.15,475.01 294.7,478.59C291.12,486.28 287.53,493.97 283.95,501.66C276.17,521.76 274.01,549.93 262.44,567.58C250.99,567.56 243.53,571.47 236.8,570.88C236.52,564.84 236.25,558.79 235.97,552.75C232.51,554.07 233.08,553.56 228.53,552.75C227.15,549.73 225.77,546.71 224.4,543.69C219.27,544.12 218.98,541.65 212.82,542.87C212.12,537.66 211.97,536.63 206.2,536.28C208.56,525.35 204.22,515.29 197.09,509.09C199.42,506.71 200.7,507.02 202.05,503.32C196.87,498.77 192.51,493.74 185.51,490.96C186.09,482.01 184.85,470.61 178.9,463.77C178.07,464.32 177.24,464.86 176.42,465.41C175.35,474.37 167.1,484.89 161.54,490.13C159.18,489.06 161.04,488.88 158.23,489.31C155.74,493.15 153.26,497 150.78,500.85C153.37,501.59 153.64,501.03 155.74,502.5C152.92,512.28 145.34,522.72 140.03,528.04C137,526.28 138.04,526.2 134.25,526.39C133.97,526.94 133.7,527.49 133.42,528.04C134.53,530.52 135.62,532.98 136.73,535.46C128.75,539.6 130.06,540.25 130.94,546.17C126.15,546.33 124.8,546.79 122.66,549.46C126.48,549.46 125.16,548.69 127.63,550.29C125.78,555.63 108.35,573.6 103.64,577.48C105.43,580.39 104.92,578.23 105.3,581.61C103.92,583.8 102.55,586 101.17,588.2L100.34,588.2C99.51,586.84 98.68,585.45 97.86,584.07C95.9,587.35 96.98,588.75 97.86,593.14C96.48,593.42 95.1,593.69 93.72,593.97C93.18,590.97 93.39,591.48 92.07,589.85C90.18,594.65 81.63,602.51 76.35,603.85C75.25,603.03 74.14,602.2 73.04,601.39C73.31,600.56 73.59,599.74 73.87,598.91C87.56,581.9 102.2,563.01 113.57,546.18C119.98,536.69 116.73,523.98 125.15,516.51C127.43,517.61 125.39,517.03 127.63,517.34C133.11,489.55 154.35,471.45 163.2,445.65C166.41,447.17 168.59,448.14 172.3,447.3C173.4,444.83 174.51,442.35 175.61,439.88C172.89,438.53 172.97,438.2 171.47,435.76C172.57,432.2 173.69,428.63 174.78,425.06L178.91,425.06L178.88,425.03Z" style="fill:white;"/>
                    </g>
                    <g transform="matrix(4.285714,0,0,4.285714,512,382.84237)">
                        <g transform="matrix(1,0,0,1,-58.333333,-58.333333)">
                            <clipPath id="_clip1">
                                <rect x="0" y="0" width="116.667" height="116.667"/>
                            </clipPath>
                            <g clip-path="url(#_clip1)">
                                <g transform="matrix(2.430556,0,0,2.430556,0,0)">
                                    <path d="M5,7L16,7C20.418,7 24,10.582 24,15L24,42C24,38.686 21.314,36 18,36L5,36L5,7Z" style="fill:none;fill-rule:nonzero;stroke:white;stroke-width:3px;"/>
                                </g>
                                <g transform="matrix(2.430556,0,0,2.430556,0,0)">
                                    <path d="M43,7L32,7C27.582,7 24,10.582 24,15L24,42C24,38.686 26.686,36 30,36L43,36L43,7Z" style="fill:none;fill-rule:nonzero;stroke:white;stroke-width:3px;"/>
                                </g>
                            </g>
                        </g>
                    </g>
                </g>
            </g>
        </g>
    </g>
</svg>
